<mxfile>
    <diagram id="ubbNhcf9sTbG3n-Y2eUS" name="Page-1">
        <mxGraphModel dx="826" dy="830" grid="1" gridSize="10" guides="1" tooltips="1" connect="1" arrows="1" fold="1" page="1" pageScale="1" pageWidth="850" pageHeight="1100" math="0" shadow="0">
            <root>
                <mxCell id="0"/>
                <mxCell id="1" parent="0"/>
                <mxCell id="6" value="executor" style="ellipse;whiteSpace=wrap;html=1;aspect=fixed;" parent="1" vertex="1">
                    <mxGeometry x="240" y="90" width="80" height="80" as="geometry"/>
                </mxCell>
                <mxCell id="7" value="sub&amp;nbsp;&lt;br&gt;command" style="ellipse;whiteSpace=wrap;html=1;aspect=fixed;" parent="1" vertex="1">
                    <mxGeometry x="360" y="240" width="80" height="80" as="geometry"/>
                </mxCell>
                <mxCell id="8" value="" style="endArrow=classic;html=1;exitX=0.95;exitY=0.813;exitDx=0;exitDy=0;entryX=0.5;entryY=0;entryDx=0;entryDy=0;exitPerimeter=0;" parent="1" source="6" target="7" edge="1">
                    <mxGeometry width="50" height="50" relative="1" as="geometry">
                        <mxPoint x="170" y="30" as="sourcePoint"/>
                        <mxPoint x="261.7157287525381" y="111.7157287525381" as="targetPoint"/>
                    </mxGeometry>
                </mxCell>
                <mxCell id="11" value="sub&amp;nbsp;&lt;br&gt;command" style="ellipse;whiteSpace=wrap;html=1;aspect=fixed;" parent="1" vertex="1">
                    <mxGeometry x="160" y="250" width="80" height="80" as="geometry"/>
                </mxCell>
                <mxCell id="12" value="" style="endArrow=classic;html=1;exitX=0.075;exitY=0.813;exitDx=0;exitDy=0;entryX=0.5;entryY=0;entryDx=0;entryDy=0;exitPerimeter=0;" parent="1" source="6" target="11" edge="1">
                    <mxGeometry width="50" height="50" relative="1" as="geometry">
                        <mxPoint x="180" y="165.03999999999996" as="sourcePoint"/>
                        <mxPoint x="125.7157287525381" y="121.7157287525381" as="targetPoint"/>
                    </mxGeometry>
                </mxCell>
                <mxCell id="13" value="sub&amp;nbsp;&lt;br&gt;command 1" style="ellipse;whiteSpace=wrap;html=1;aspect=fixed;" parent="1" vertex="1">
                    <mxGeometry x="474" y="394.96000000000004" width="80" height="80" as="geometry"/>
                </mxCell>
                <mxCell id="14" value="" style="endArrow=classic;html=1;exitX=0.95;exitY=0.813;exitDx=0;exitDy=0;entryX=0.5;entryY=0;entryDx=0;entryDy=0;exitPerimeter=0;" parent="1" target="13" edge="1">
                    <mxGeometry width="50" height="50" relative="1" as="geometry">
                        <mxPoint x="430" y="310" as="sourcePoint"/>
                        <mxPoint x="375.7157287525381" y="266.67572875253813" as="targetPoint"/>
                    </mxGeometry>
                </mxCell>
                <mxCell id="16" value="&lt;b&gt;should not&lt;/b&gt;" style="edgeLabel;html=1;align=center;verticalAlign=middle;resizable=0;points=[];" vertex="1" connectable="0" parent="14">
                    <mxGeometry x="-0.2664" y="3" relative="1" as="geometry">
                        <mxPoint x="37" as="offset"/>
                    </mxGeometry>
                </mxCell>
                <mxCell id="15" value="&lt;h1&gt;Command&lt;/h1&gt;&lt;p&gt;Command relates to a tree. This is primary schema for command to use.&amp;nbsp;&lt;/p&gt;&lt;p&gt;Sub command should not have sub command. Instead of that, using parameters&lt;/p&gt;" style="text;html=1;strokeColor=none;fillColor=none;spacing=5;spacingTop=-20;whiteSpace=wrap;overflow=hidden;rounded=0;" parent="1" vertex="1">
                    <mxGeometry x="630" y="30" width="190" height="270" as="geometry"/>
                </mxCell>
                <mxCell id="17" value="sub&amp;nbsp;&lt;br&gt;command&lt;br&gt;..." style="ellipse;whiteSpace=wrap;html=1;aspect=fixed;" vertex="1" parent="1">
                    <mxGeometry x="530" y="554.96" width="80" height="80" as="geometry"/>
                </mxCell>
                <mxCell id="18" value="" style="endArrow=classic;html=1;entryX=0.5;entryY=0;entryDx=0;entryDy=0;exitX=1;exitY=1;exitDx=0;exitDy=0;" edge="1" parent="1" target="17" source="13">
                    <mxGeometry width="50" height="50" relative="1" as="geometry">
                        <mxPoint x="540" y="460" as="sourcePoint"/>
                        <mxPoint x="485.7157287525381" y="426.67572875253813" as="targetPoint"/>
                    </mxGeometry>
                </mxCell>
                <mxCell id="19" value="&lt;b&gt;should not&lt;/b&gt;" style="edgeLabel;html=1;align=center;verticalAlign=middle;resizable=0;points=[];" vertex="1" connectable="0" parent="18">
                    <mxGeometry x="-0.2664" y="3" relative="1" as="geometry">
                        <mxPoint x="37" as="offset"/>
                    </mxGeometry>
                </mxCell>
                <mxCell id="21" value="/executor" style="text;html=1;align=center;verticalAlign=middle;resizable=0;points=[];autosize=1;strokeColor=none;" vertex="1" parent="1">
                    <mxGeometry x="325" y="110" width="60" height="20" as="geometry"/>
                </mxCell>
                <mxCell id="22" value="/executor &amp;lt;sub command&amp;gt;" style="text;html=1;align=center;verticalAlign=middle;resizable=0;points=[];autosize=1;strokeColor=none;" vertex="1" parent="1">
                    <mxGeometry x="450" y="270" width="160" height="20" as="geometry"/>
                </mxCell>
                <mxCell id="23" value="/executor &amp;lt;sub command&amp;gt;&lt;br&gt;&amp;nbsp;&amp;lt;sub command1&amp;gt;" style="text;html=1;align=center;verticalAlign=middle;resizable=0;points=[];autosize=1;strokeColor=none;" vertex="1" parent="1">
                    <mxGeometry x="580" y="419.96" width="160" height="30" as="geometry"/>
                </mxCell>
                <mxCell id="26" value="/executor &amp;lt;sub command&amp;gt;" style="text;html=1;align=center;verticalAlign=middle;resizable=0;points=[];autosize=1;strokeColor=none;" vertex="1" parent="1">
                    <mxGeometry x="120" y="340" width="160" height="20" as="geometry"/>
                </mxCell>
            </root>
        </mxGraphModel>
    </diagram>
</mxfile>